Coordinates
version=1
nRows=5
nColumns=63
inDegrees=yes

Units are S.I. units (second, meters, Newtons, ...)
If the header above contains a line with 'inDegrees', this indicates whether rotational values are in degrees (yes) or radians (no).

endheader
time	pelvis_tilt	pelvis_list	pelvis_rotation	pelvis_tx	pelvis_ty	pelvis_tz	hip_flexion_r	hip_adduction_r	hip_rotation_r	knee_angle_r	knee_angle_r_beta	ankle_angle_r	subtalar_angle_r	mtp_angle_r	hip_flexion_l	hip_adduction_l	hip_rotation_l	knee_angle_l	knee_angle_l_beta	ankle_angle_l	subtalar_angle_l	mtp_angle_l	L5_S1_Flex_Ext	L5_S1_Lat_Bending	L5_S1_axial_rotation	L4_L5_Flex_Ext	L4_L5_Lat_Bending	L4_L5_axial_rotation	L3_L4_Flex_Ext	L3_L4_Lat_Bending	L3_L4_axial_rotation	L2_L3_Flex_Ext	L2_L3_Lat_Bending	L2_L3_axial_rotation	L1_L2_Flex_Ext	L1_L2_Lat_Bending	L1_L2_axial_rotation	L1_T12_Flex_Ext	L1_T12_Lat_Bending	L1_T12_axial_rotation	Abs_r3	Abs_r2	Abs_r1	Abs_t1	Abs_t2	neck_flexion	neck_bending	neck_rotation	arm_flex_r	arm_add_r	arm_rot_r	elbow_flex_r	pro_sup_r	wrist_flex_r	wrist_dev_r	arm_flex_l	arm_add_l	arm_rot_l	elbow_flex_l	pro_sup_l	wrist_flex_l	wrist_dev_l
      4.73333333	      6.37925546	     -2.84123864	    116.10208506	      0.28176659	      0.58664664	      0.92158861	      7.13459320	     -0.79358210	    -18.47089185	     16.25053889	      0.28362541	     32.50023911	     11.90269348	      0.00000000	      3.94455367	     -0.20178999	     -8.73107891	      7.93535096	      0.13849800	     29.25687097	     14.36233025	      0.00000000	     -0.02384771	      0.89318311	     -1.84982101	     -0.04428758	      1.18793353	     -1.96543482	     -0.03917940	      2.17168541	     -1.96543482	     -0.02725554	      2.17168541	     -1.61859338	     -0.02214498	      1.82137899	     -1.50297957	     -0.01362658	      1.38354063	     -1.38736576	     -0.17034178	     10.10386595	    -10.28814952	      0.00000000	      0.00000000	     21.54513639	     -7.42255551	     20.05140860	    -17.19610889	     -3.98980952	    232.93211917	      0.33857590	      4.61366345	    -15.11873105	    -11.33899279	    -25.61643412	    -14.24066748	     28.21857565	     66.15313293	     88.02032487	     30.37027750	     33.34561577
      4.75000000	      6.39715605	     -2.80079729	    116.03242476	      0.28176506	      0.58663562	      0.92170102	      7.07459219	     -0.74794557	    -18.38057972	     16.18679776	      0.28251292	     32.46146603	     11.91106027	      0.00000000	      3.92213731	     -0.24533332	     -9.04372797	      7.99908110	      0.13961030	     29.33229123	     14.63194480	      0.00000000	     -0.02719798	      0.90112546	     -1.82698079	     -0.05050937	      1.19849686	     -1.94116709	     -0.04468356	      2.19099643	     -1.94116709	     -0.03108457	      2.19099643	     -1.59860819	     -0.02525604	      1.83757503	     -1.48442189	     -0.01554093	      1.39584333	     -1.37023559	     -0.19427245	     10.19371138	    -10.16111907	      0.00000000	      0.00000000	     21.41862787	     -7.50771801	     20.04496338	    -17.27888592	     -3.97847508	    233.13253877	      0.33948981	      4.69768521	    -15.36550222	    -11.42966517	    -25.61282461	    -14.19292153	     28.07364929	     66.14935984	     88.01908292	     31.46237403	     33.34800769
      4.76666667	      6.38018760	     -2.75830798	    116.01154581	      0.28126459	      0.58632594	      0.92226970	      7.04825457	     -0.80205601	    -18.35405430	     16.21394254	      0.28298668	     32.49516929	     11.94489621	      0.00000000	      3.88495023	     -0.20275387	     -9.04012944	      8.04060790	      0.14033508	     29.37576113	     14.59281647	      0.00000000	     -0.03532692	      0.91494853	     -1.83966266	     -0.06560562	      1.21688154	     -1.95464158	     -0.05803860	      2.22460585	     -1.95464158	     -0.04037514	      2.22460585	     -1.60970483	     -0.03280458	      1.86576304	     -1.49472591	     -0.02018580	      1.41725527	     -1.37974700	     -0.25233665	     10.35008074	    -10.23165184	      0.00000000	      0.00000000	     21.40215497	     -7.56338321	     20.09569583	    -17.54925949	     -4.10502142	    233.14495662	      0.35236374	      4.68519545	    -15.28499660	    -11.46949635	    -25.65830128	    -14.10218717	     28.14334086	     66.30611722	     87.96635828	     31.53715181	     33.33053076
      4.78333333	      6.94327253	     -2.42457933	    115.90898325	      0.28010596	      0.58593130	      0.92290825	      6.93698263	     -0.23202320	    -18.70453879	     16.13172640	      0.28155174	     32.42231427	     12.54613311	      0.00000000	      3.90769370	     -0.81249667	     -8.59375400	      8.28053761	      0.14452265	     29.78015770	     13.97615599	      0.00000000	     -0.04870797	      1.03702363	     -1.91196932	     -0.09045557	      1.37924143	     -2.03146740	     -0.08002233	      2.52141926	     -2.03146740	     -0.05566834	      2.52141926	     -1.67297315	     -0.04523022	      2.11469859	     -1.55347507	     -0.02783173	      1.60634961	     -1.43397699	     -0.34791617	     11.73101875	    -10.63379975	      0.00000000	      0.00000000	     21.34026858	     -8.45654555	     21.57158603	    -17.93159470	     -4.82861186	    233.21101541	      0.37028443	      3.78729175	    -13.83337595	    -11.91471545	    -25.73986045	    -13.15960364	     27.85673990	     65.92839121	     87.56197428	     32.44393891	     33.28479391
      4.80000000	      7.08657916	     -2.10472800	    115.64875550	      0.27904912	      0.58517550	      0.92367250	      6.81748561	     -0.08487291	    -18.59656532	     16.37417670	      0.28578330	     32.69635625	     12.75388812	      0.00000000	      3.67931039	     -1.00742722	     -8.61811951	      8.39117506	      0.14645363	     30.18509804	     13.71742100	      0.00000000	     -0.07396754	      1.10070777	     -2.01202250	     -0.13736511	      1.46394133	     -2.13777391	     -0.12152127	      2.67626087	     -2.13777391	     -0.08453750	      2.67626087	     -1.76051969	     -0.06868626	      2.24456328	     -1.63476828	     -0.04226505	      1.70499633	     -1.50901688	     -0.52834273	     12.45142642	    -11.19026556	      0.00000000	      0.00000000	     21.06144644	     -8.99621511	     22.06021657	    -18.50678727	     -5.46051882	    233.40731708	      0.42522973	      3.66583430	    -13.33111126	    -11.89648022	    -25.94639823	    -12.66224008	     27.86240559	     66.12414913	     87.36946013	     32.69591972	     33.26792215
